<?xml version="1.0" encoding="UTF-8" standalone="no"?>
<svg
   id="icon-article"
   viewBox="0 0 16 16"
   version="1.1"
   sodipodi:docname="article.svg"
   inkscape:version="1.4 (86a8ad7, 2024-10-11)"
   xmlns:inkscape="http://www.inkscape.org/namespaces/inkscape"
   xmlns:sodipodi="http://sodipodi.sourceforge.net/DTD/sodipodi-0.dtd"
   xmlns="http://www.w3.org/2000/svg"
   xmlns:svg="http://www.w3.org/2000/svg"
>
  <defs
     id="defs1" />
  <sodipodi:namedview
     id="namedview1"
     pagecolor="#ffffff"
     bordercolor="#000000"
     borderopacity="0.25"
     inkscape:showpageshadow="2"
     inkscape:pageopacity="0.0"
     inkscape:pagecheckerboard="0"
     inkscape:deskcolor="#d1d1d1"
     inkscape:zoom="3.0195313"
     inkscape:cx="7.9482535"
     inkscape:cy="7.7826649"
     inkscape:window-width="1920"
     inkscape:window-height="991"
     inkscape:window-x="-9"
     inkscape:window-y="-9"
     inkscape:window-maximized="1"
     inkscape:current-layer="icon-bars" />
  <!--! bars (solid): Font Awesome Pro 6.4.0 -->
  <path
     d="M 14,14 H 2 C 1.437,14 1,13.562 1,13 1,12.469 1.438,12 2,12 h 12 c 0.531,0 1,0.469 1,1 0,0.563 -0.469,1 -1,1 z"
     id="path1"
     sodipodi:nodetypes="sssssss" />
  <rect
     style="display:inline;fill:currentColor"
     id="rect1"
     width="13.744211"
     height="4.9991322"
     x="1.076326"
     y="1.9663649"
     rx="0.60000002"
     ry="0.60000002" />
  <path
     d="M 13.984476,10.628719 H 1.9844761 c -0.563,0 -1.00000003,-0.438 -1.00000003,-0.9999997 0,-0.531 0.43800003,-1 1.00000003,-1 H 13.984476 c 0.531,0 1,0.469 1,1 0,0.5629997 -0.469,0.9999997 -1,0.9999997 z"
     id="path1-4"
     sodipodi:nodetypes="sssssss" />
</svg>
